<svg width="21" height="20" viewBox="0 0 21 20" fill="none" xmlns="http://www.w3.org/2000/svg">
<path fill-rule="evenodd" clip-rule="evenodd" d="M15.4019 12.1176H7.37073L5.64494 5.79217H18.5647L15.4019 12.1176ZM20.3574 4.68315C19.9705 4.05693 19.3 3.68372 18.5641 3.68372H5.0698L4.41933 1.29797C4.29387 0.839377 3.87745 0.520996 3.40199 0.520996H1.2935C0.710504 0.520996 0.239258 0.993297 0.239258 1.57524C0.239258 2.15718 0.710504 2.62948 1.2935 2.62948H2.59654L5.54737 13.4492C5.67282 13.9078 6.08925 14.2262 6.56471 14.2262H16.0529C16.4525 14.2262 16.8172 14.0005 16.9964 13.6432L20.4501 6.7347C20.7801 6.0758 20.7443 5.30937 20.3574 4.68315ZM6.03792 16.3346C5.16501 16.3346 4.45656 17.042 4.45656 17.916C4.45656 18.7899 5.16501 19.4973 6.03792 19.4973C6.91084 19.4973 7.61929 18.7899 7.61929 17.916C7.61929 17.042 6.91084 16.3346 6.03792 16.3346ZM14.999 17.916C14.999 17.042 15.7074 16.3346 16.5803 16.3346C17.4533 16.3346 18.1617 17.042 18.1617 17.916C18.1617 18.7899 17.4533 19.4973 16.5803 19.4973C15.7074 19.4973 14.999 18.7899 14.999 17.916Z" fill="white"/>
</svg>
