<svg width="39" height="13" viewBox="0 0 39 13" fill="none" xmlns="http://www.w3.org/2000/svg">
<path d="M1.69142 10.7864V2.9591H7.22642V4.13319H2.92142V6.14592H6.33188V7.32001H2.92142V9.61229H7.33824V10.7864H1.69142ZM8.62852 10.7864V5.4191H9.7467V9.7241H11.7035V5.4191H12.8217V9.7241H14.7785V5.4191H15.8967V9.7241H16.6794V12.1282H15.5612V10.7864H8.62852ZM21.7624 9.1091L22.4333 9.89183C22.2916 10.0782 22.1053 10.2459 21.8742 10.395C21.3673 10.7305 20.7895 10.8982 20.141 10.8982C19.3583 10.8982 18.6948 10.6298 18.1506 10.0931C17.6139 9.54892 17.3455 8.88547 17.3455 8.10274C17.3455 7.32001 17.6102 6.66029 18.1394 6.12356C18.6762 5.57938 19.3247 5.30729 20.0851 5.30729C20.8454 5.30729 21.4716 5.55701 21.9636 6.05647C22.4631 6.54847 22.7128 7.17465 22.7128 7.93501C22.7128 8.0021 22.7016 8.13629 22.6793 8.33756L22.6569 8.4941H18.5196C18.5867 8.87429 18.7731 9.19483 19.0787 9.45574C19.3844 9.7092 19.7571 9.83592 20.1969 9.83592C20.5994 9.83592 20.9796 9.71665 21.3374 9.4781C21.5014 9.37374 21.6431 9.25074 21.7624 9.1091ZM18.5196 7.54365H21.5387C21.4493 7.16347 21.2815 6.86529 21.0355 6.6491C20.7895 6.42547 20.4727 6.31365 20.0851 6.31365C19.2949 6.31365 18.7731 6.72365 18.5196 7.54365Z" fill="#00AC4E"/>
<path d="M38.3964 7.89082C38.6148 7.67248 38.6148 7.31849 38.3964 7.10015L34.8384 3.54211C34.62 3.32378 34.2661 3.32378 34.0477 3.54211C33.8294 3.76045 33.8294 4.11445 34.0477 4.33279L37.2104 7.49548L34.0477 10.6582C33.8294 10.8765 33.8294 11.2305 34.0477 11.4489C34.2661 11.6672 34.62 11.6672 34.8384 11.4489L38.3964 7.89082ZM29.292 8.05457H38.0011V6.93639L29.292 6.93639V8.05457Z" fill="#00AC4E"/>
</svg>
